<svg width="448" height="448" viewBox="0 0 448 448" fill="none" xmlns="http://www.w3.org/2000/svg">
<g clip-path="url(#clip0_1069_3377)">
<path d="M270.798 42.5122C277.071 41.0964 283.622 43.1347 287.985 47.8594L404.565 174.114C408.928 178.839 410.438 185.532 408.528 191.672L357.478 355.761C355.568 361.901 350.527 366.556 344.254 367.972L176.624 405.806C170.351 407.222 163.799 405.183 159.436 400.459L42.8564 274.204C38.4938 269.479 36.9831 262.786 38.8935 256.646L89.9433 92.5572C91.8537 86.4167 96.8948 81.7619 103.168 80.3461L270.798 42.5122Z" fill="#FBDB94"/>
<path d="M115.514 109.601L293.149 102.334C300.678 102.026 307.031 107.879 307.339 115.408L317.086 353.682C317.394 361.211 311.541 367.564 304.012 367.872L126.376 375.139C118.848 375.447 112.495 369.593 112.187 362.064L102.439 123.79C102.131 116.261 107.985 109.909 115.514 109.601Z" fill="white" stroke="#292C32" stroke-width="2.71323"/>
<path d="M91.457 110.442L257.62 88.324C265.089 87.3297 271.95 92.5787 272.944 100.048L302.679 323.429C303.673 330.898 298.424 337.759 290.955 338.753L124.792 360.871C117.323 361.866 110.462 356.617 109.468 349.148L79.7332 125.767C78.7389 118.297 83.9879 111.437 91.457 110.442Z" fill="white" stroke="#292C32" stroke-width="2.71323"/>
<path d="M53.3237 155.003L97.9449 340.584C99.8816 348.639 107.981 353.599 116.036 351.662L272.168 314.122C280.222 312.185 285.182 304.085 283.245 296.031L233.71 90.0102C231.773 81.9554 223.673 76.9958 215.619 78.9325L80.502 111.42" fill="white"/>
<path d="M53.3237 155.003L97.9449 340.584C99.8816 348.639 107.981 353.599 116.036 351.662L272.168 314.122C280.222 312.185 285.182 304.085 283.245 296.031L233.71 90.0102C231.773 81.9554 223.673 76.9958 215.619 78.9325L80.502 111.42" stroke="#292C32" stroke-width="2.71323" stroke-miterlimit="10"/>
<path d="M49.4264 150.307C48.9612 151.067 49.6468 152.01 50.513 151.802L82.8281 144.032C83.3651 143.903 83.6958 143.363 83.5667 142.826L75.7968 110.511C75.5885 109.644 74.4369 109.462 73.9717 110.222L49.4264 150.307Z" fill="#F98F6D"/>
<path d="M53.4733 155.614L89.1081 147.046L80.54 111.412L53.4733 155.614Z" stroke="#292C32" stroke-width="2.71323" stroke-linecap="round" stroke-linejoin="round"/>
<path d="M133.402 301.863C134.133 303.376 139.068 303.343 140.271 303.32C145.774 303.211 150.839 298.18 153.119 293.285C154.908 289.445 153.766 283.885 150.792 280.872C150.344 280.419 144.508 275.485 144.585 277.77C144.961 288.811 141.959 301.15 146.366 311.78C146.5 312.105 147.443 307.686 147.646 306.871C148.71 302.585 149.688 298.188 151.334 294.093C153.06 289.794 154.569 291.924 156.868 294.503C158.238 296.041 161.326 301.238 162.709 298C163.574 295.975 164.758 294.121 165.667 292.121C166.153 291.05 166.1 289.836 166.587 291.639C166.879 292.724 168.789 299.28 169.845 297.505C170.526 296.36 172.741 291.576 172.818 291.787C173.099 292.555 173.877 296.084 175.069 295.867C176.101 295.68 176.722 292.162 177.299 291.366C178.357 289.908 180.306 292.883 181.546 293.314C186.203 294.933 189.303 291.371 191.284 287.473" stroke="#0F2B46" stroke-opacity="0.36" stroke-linecap="round"/>
<path d="M131.935 198.101L222.629 176.284V176.284C224.578 184.387 219.59 192.535 211.487 194.484L135.464 212.772L131.935 198.101Z" fill="#C6CDD5"/>
<path d="M109.76 234.962L229.796 206.087V206.087C231.746 214.19 226.757 222.339 218.654 224.288L113.289 249.634L109.76 234.962Z" fill="#C6CDD5"/>
<path d="M116.882 264.56L185.224 248.12V248.12C187.159 256.164 182.207 264.253 174.163 266.188L120.385 279.124L116.882 264.56Z" fill="#C6CDD5"/>
<path d="M106.558 219.654L102.455 202.599L122.733 215.763L118.527 198.276" stroke="#292C32" stroke-width="2.71323" stroke-linecap="round" stroke-linejoin="round"/>
<path d="M103.354 199.959C103.853 197.783 106.837 196.771 109.338 198.291C112.03 199.927 115.064 198.74 115.615 196.781" stroke="#292C32" stroke-width="2.71323" stroke-linecap="round" stroke-linejoin="round"/>
<path d="M225.883 292.784C241.624 288.986 251.258 272.944 247.4 256.953C243.542 240.963 227.653 231.079 211.912 234.877C196.17 238.675 186.537 254.717 190.395 270.707C194.253 286.698 210.142 296.582 225.883 292.784Z" fill="white" stroke="#01557C" stroke-width="2.71323" stroke-linecap="round" stroke-linejoin="round"/>
<path d="M224.614 287.519C237.493 284.412 245.375 271.287 242.218 258.203C239.061 245.12 226.062 237.034 213.182 240.141C200.303 243.248 192.421 256.373 195.578 269.457C198.734 282.54 211.734 290.627 224.614 287.519Z" fill="white" stroke="#01557C" stroke-width="2.71323" stroke-linecap="round" stroke-linejoin="round"/>
<path d="M203.158 266.778L229.618 252.888" stroke="#01557C" stroke-width="2.71323" stroke-linecap="round" stroke-linejoin="round"/>
<path d="M207.641 275.481L234.097 261.572" stroke="#01557C" stroke-width="2.71323" stroke-linecap="round" stroke-linejoin="round"/>
<g filter="url(#filter0_d_1069_3377)">
<g clip-path="url(#clip1_1069_3377)">
<g filter="url(#filter1_d_1069_3377)">
<rect x="238" y="67" width="131.838" height="232.444" rx="4" fill="white"/>
<g style="mix-blend-mode:darken" opacity="0.3">
<rect x="238" y="136.516" width="132" height="32.431" fill="#FFC857"/>
</g>
<path d="M263.607 96.9604H256.748V84.7456H263.607V86.216H258.461V89.8504H263.298V91.3041H258.461V95.4816H263.607V96.9604Z" fill="#394046"/>
<path d="M270.642 87.5862C271.706 87.5862 272.522 87.8536 273.09 88.3883C273.664 88.923 273.951 89.7808 273.951 90.9616V96.9604H272.288V91.1872C272.288 90.4519 272.127 89.9005 271.804 89.5329C271.48 89.1597 270.985 88.9731 270.316 88.9731C269.364 88.9731 268.696 89.2544 268.311 89.817C267.932 90.3795 267.743 91.1955 267.743 92.2649V96.9604H266.064V87.7533H267.392L267.634 89.0483H267.726C267.921 88.7253 268.169 88.4551 268.47 88.2379C268.771 88.0207 269.105 87.8591 269.473 87.7533C269.846 87.6419 270.236 87.5862 270.642 87.5862Z" fill="#394046"/>
<path d="M279.365 101.071C278.134 101.071 277.187 100.845 276.524 100.394C275.867 99.9431 275.538 99.3137 275.538 98.506C275.538 97.9323 275.719 97.445 276.081 97.0439C276.443 96.6485 276.95 96.3811 277.602 96.2419C277.357 96.1305 277.145 95.9606 276.967 95.7322C276.794 95.4983 276.708 95.2365 276.708 94.9469C276.708 94.6071 276.803 94.3147 276.992 94.0696C277.187 93.819 277.476 93.5767 277.861 93.3427C277.376 93.1422 276.986 92.8108 276.691 92.3485C276.396 91.8806 276.248 91.3348 276.248 90.7109C276.248 90.0481 276.388 89.4828 276.666 89.0149C276.95 88.547 277.357 88.1906 277.886 87.9455C278.415 87.7004 279.058 87.5779 279.816 87.5779C279.983 87.5779 280.156 87.5862 280.334 87.6029C280.512 87.6141 280.682 87.6336 280.843 87.6614C281.005 87.6893 281.136 87.7171 281.236 87.745H284.411V88.7392L282.773 88.9898C282.935 89.2015 283.066 89.4521 283.166 89.7418C283.266 90.0314 283.317 90.3489 283.317 90.6942C283.317 91.63 282.996 92.3708 282.356 92.9166C281.721 93.4569 280.841 93.7271 279.716 93.7271C279.454 93.7215 279.189 93.6992 278.922 93.6602C278.682 93.7995 278.501 93.9526 278.379 94.1197C278.256 94.2813 278.195 94.4679 278.195 94.6795C278.195 94.841 278.248 94.9719 278.354 95.0722C278.465 95.1724 278.624 95.2476 278.83 95.2978C279.036 95.3423 279.287 95.3646 279.582 95.3646H281.186C282.189 95.3646 282.957 95.5763 283.492 95.9996C284.027 96.4229 284.294 97.0412 284.294 97.8544C284.294 98.8848 283.871 99.6785 283.024 100.235C282.177 100.792 280.958 101.071 279.365 101.071ZM279.423 99.8428C280.142 99.8428 280.74 99.7704 281.219 99.6256C281.704 99.4808 282.069 99.2747 282.314 99.0073C282.559 98.74 282.682 98.4225 282.682 98.0549C282.682 97.7207 282.601 97.4645 282.439 97.2862C282.283 97.1136 282.049 96.9966 281.737 96.9353C281.426 96.8741 281.041 96.8434 280.584 96.8434H279.064C278.674 96.8434 278.334 96.9047 278.045 97.0272C277.755 97.1498 277.529 97.3252 277.368 97.5536C277.206 97.7875 277.126 98.0744 277.126 98.4141C277.126 98.8764 277.323 99.2301 277.719 99.4752C278.12 99.7203 278.688 99.8428 279.423 99.8428ZM279.791 92.5824C280.409 92.5824 280.871 92.4209 281.178 92.0979C281.484 91.7692 281.637 91.3014 281.637 90.6942C281.637 90.0426 281.481 89.5524 281.169 89.2238C280.857 88.8952 280.395 88.7308 279.782 88.7308C279.186 88.7308 278.73 88.9007 278.412 89.2405C278.1 89.5747 277.944 90.0648 277.944 90.7109C277.944 91.3069 278.103 91.7692 278.421 92.0979C278.738 92.4209 279.195 92.5824 279.791 92.5824Z" fill="#394046"/>
<path d="M287.837 96.9604H286.149V83.9602H287.837V96.9604Z" fill="#394046"/>
<path d="M292.373 87.7533V96.9604H290.694V87.7533H292.373ZM291.546 84.2693C291.813 84.2693 292.042 84.3473 292.231 84.5033C292.426 84.6592 292.524 84.9127 292.524 85.2636C292.524 85.6145 292.426 85.8707 292.231 86.0322C292.042 86.1882 291.813 86.2662 291.546 86.2662C291.273 86.2662 291.042 86.1882 290.853 86.0322C290.669 85.8707 290.577 85.6145 290.577 85.2636C290.577 84.9127 290.669 84.6592 290.853 84.5033C291.042 84.3473 291.273 84.2693 291.546 84.2693Z" fill="#394046"/>
<path d="M301.313 94.3871C301.313 94.9831 301.165 95.4871 300.87 95.8993C300.58 96.3059 300.157 96.6123 299.6 96.8184C299.043 97.0244 298.375 97.1275 297.595 97.1275C296.949 97.1275 296.392 97.0774 295.924 96.9771C295.456 96.8824 295.033 96.7432 294.654 96.5594V95.0722C295.061 95.2671 295.531 95.4398 296.066 95.5902C296.601 95.7406 297.124 95.8158 297.637 95.8158C298.355 95.8158 298.873 95.7016 299.191 95.4732C299.514 95.2449 299.675 94.9357 299.675 94.5458C299.675 94.3175 299.611 94.1169 299.483 93.9443C299.355 93.766 299.13 93.5906 298.806 93.4179C298.489 93.2397 298.032 93.0364 297.436 92.808C296.851 92.5796 296.35 92.3513 295.932 92.1229C295.52 91.8945 295.206 91.6188 294.988 91.2958C294.771 90.9727 294.662 90.555 294.662 90.0426C294.662 89.2461 294.98 88.6389 295.615 88.2212C296.255 87.7979 297.099 87.5862 298.146 87.5862C298.703 87.5862 299.227 87.6419 299.717 87.7533C300.213 87.8647 300.686 88.0207 301.137 88.2212L300.594 89.5162C300.193 89.3435 299.781 89.2015 299.358 89.0901C298.935 88.9731 298.503 88.9146 298.063 88.9146C297.489 88.9146 297.049 89.0065 296.743 89.1904C296.442 89.3742 296.292 89.6276 296.292 89.9506C296.292 90.2013 296.361 90.4102 296.501 90.5773C296.645 90.7444 296.885 90.9087 297.219 91.0702C297.553 91.2262 298.004 91.4128 298.573 91.63C299.135 91.8416 299.62 92.0616 300.026 92.29C300.438 92.5184 300.756 92.7969 300.979 93.1255C301.202 93.4541 301.313 93.8747 301.313 94.3871Z" fill="#394046"/>
<path d="M305.173 83.9602V87.5361C305.173 87.8202 305.165 88.0987 305.148 88.3716C305.131 88.6445 305.112 88.8729 305.089 89.0567H305.19C305.385 88.7336 305.624 88.4663 305.908 88.2546C306.198 88.0374 306.524 87.8759 306.886 87.77C307.253 87.6586 307.64 87.6029 308.047 87.6029C308.765 87.6029 309.373 87.7199 309.868 87.9538C310.364 88.1878 310.74 88.5526 310.996 89.0483C311.252 89.5385 311.381 90.1762 311.381 90.9616V96.9604H309.718V91.1872C309.718 90.4519 309.556 89.9005 309.233 89.5329C308.91 89.1597 308.415 88.9731 307.746 88.9731C307.111 88.9731 306.604 89.1012 306.226 89.3575C305.847 89.6081 305.577 89.9785 305.415 90.4687C305.254 90.9588 305.173 91.5604 305.173 92.2733V96.9604H303.494V83.9602H305.173Z" fill="#394046"/>
<path d="M266.557 152.335C266.557 153.711 266.303 154.861 265.796 155.785C265.29 156.704 264.554 157.398 263.591 157.866C262.633 158.328 261.469 158.559 260.098 158.559H256.748V146.344H260.474C261.722 146.344 262.8 146.573 263.708 147.029C264.616 147.481 265.317 148.152 265.813 149.043C266.309 149.929 266.557 151.026 266.557 152.335ZM264.76 152.385C264.76 151.338 264.59 150.474 264.251 149.795C263.911 149.115 263.412 148.611 262.755 148.283C262.098 147.949 261.293 147.781 260.341 147.781H258.461V157.105H260.04C261.616 157.105 262.797 156.71 263.582 155.919C264.368 155.128 264.76 153.95 264.76 152.385Z" fill="#394046"/>
<path d="M272.631 149.185C273.433 149.185 274.121 149.358 274.694 149.703C275.268 150.043 275.708 150.525 276.014 151.148C276.321 151.772 276.474 152.507 276.474 153.354V154.307H270.224C270.241 155.292 270.495 156.05 270.985 156.579C271.475 157.103 272.163 157.364 273.048 157.364C273.633 157.364 274.154 157.309 274.611 157.197C275.067 157.086 275.541 156.922 276.031 156.704V158.116C275.569 158.328 275.104 158.481 274.636 158.576C274.174 158.676 273.619 158.726 272.973 158.726C272.082 158.726 271.299 158.548 270.625 158.192C269.957 157.835 269.436 157.309 269.063 156.613C268.69 155.911 268.503 155.047 268.503 154.022C268.503 153.009 268.673 152.143 269.013 151.424C269.353 150.7 269.832 150.146 270.45 149.762C271.068 149.377 271.795 149.185 272.631 149.185ZM272.622 150.488C271.943 150.488 271.397 150.711 270.985 151.157C270.573 151.597 270.33 152.229 270.258 153.053H274.786C274.781 152.546 274.7 152.101 274.544 151.717C274.388 151.332 274.151 151.031 273.834 150.814C273.522 150.597 273.118 150.488 272.622 150.488Z" fill="#394046"/>
<path d="M286.583 149.352V158.559H285.238L285.004 157.298H284.912C284.723 157.615 284.478 157.88 284.177 158.091C283.876 158.303 283.539 158.462 283.166 158.568C282.793 158.673 282.398 158.726 281.98 158.726C281.272 158.726 280.671 158.609 280.175 158.375C279.685 158.141 279.312 157.779 279.056 157.289C278.805 156.794 278.68 156.156 278.68 155.376V149.352H280.367V155.142C280.367 155.883 280.526 156.437 280.843 156.805C281.167 157.172 281.657 157.356 282.314 157.356C282.954 157.356 283.461 157.231 283.835 156.98C284.213 156.724 284.483 156.354 284.645 155.869C284.812 155.379 284.896 154.78 284.896 154.073V149.352H286.583Z" fill="#394046"/>
<path d="M292.666 157.364C292.905 157.364 293.147 157.345 293.393 157.306C293.638 157.261 293.849 157.206 294.027 157.139V158.426C293.838 158.509 293.585 158.579 293.267 158.634C292.955 158.696 292.635 158.726 292.306 158.726C291.805 158.726 291.351 158.64 290.945 158.467C290.538 158.295 290.212 157.999 289.967 157.582C289.728 157.164 289.608 156.585 289.608 155.844V150.647H288.329V149.87L289.666 149.252L290.259 147.263H291.295V149.352H293.961V150.647H291.295V155.819C291.295 156.337 291.418 156.724 291.663 156.98C291.914 157.236 292.248 157.364 292.666 157.364Z" fill="#394046"/>
<path d="M301.965 155.986C301.965 156.582 301.817 157.086 301.522 157.498C301.232 157.905 300.809 158.211 300.252 158.417C299.695 158.623 299.026 158.726 298.247 158.726C297.601 158.726 297.044 158.676 296.576 158.576C296.108 158.481 295.685 158.342 295.306 158.158V156.671C295.712 156.866 296.183 157.039 296.718 157.189C297.252 157.339 297.776 157.415 298.288 157.415C299.007 157.415 299.525 157.3 299.842 157.072C300.166 156.844 300.327 156.535 300.327 156.145C300.327 155.916 300.263 155.716 300.135 155.543C300.007 155.365 299.781 155.189 299.458 155.017C299.141 154.838 298.684 154.635 298.088 154.407C297.503 154.178 297.002 153.95 296.584 153.722C296.172 153.493 295.857 153.218 295.64 152.895C295.423 152.572 295.314 152.154 295.314 151.641C295.314 150.845 295.632 150.238 296.267 149.82C296.907 149.397 297.751 149.185 298.798 149.185C299.355 149.185 299.879 149.241 300.369 149.352C300.865 149.464 301.338 149.619 301.789 149.82L301.246 151.115C300.845 150.942 300.433 150.8 300.01 150.689C299.586 150.572 299.155 150.513 298.715 150.513C298.141 150.513 297.701 150.605 297.394 150.789C297.094 150.973 296.943 151.226 296.943 151.549C296.943 151.8 297.013 152.009 297.152 152.176C297.297 152.343 297.537 152.507 297.871 152.669C298.205 152.825 298.656 153.012 299.224 153.229C299.787 153.44 300.271 153.66 300.678 153.889C301.09 154.117 301.408 154.396 301.63 154.724C301.853 155.053 301.965 155.473 301.965 155.986Z" fill="#394046"/>
<path d="M307.846 158.726C307 158.726 306.259 158.556 305.624 158.217C304.989 157.877 304.496 157.359 304.145 156.663C303.8 155.961 303.627 155.075 303.627 154.006C303.627 152.892 303.814 151.981 304.187 151.274C304.56 150.561 305.075 150.034 305.733 149.695C306.395 149.355 307.153 149.185 308.005 149.185C308.506 149.185 308.974 149.235 309.409 149.335C309.849 149.436 310.216 149.561 310.512 149.711L310.01 151.073C309.698 150.951 309.361 150.842 308.999 150.747C308.643 150.653 308.303 150.605 307.98 150.605C307.39 150.605 306.9 150.736 306.51 150.998C306.125 151.254 305.836 151.633 305.641 152.134C305.446 152.636 305.348 153.254 305.348 153.989C305.348 154.702 305.443 155.306 305.632 155.802C305.827 156.292 306.111 156.665 306.485 156.922C306.863 157.178 307.334 157.306 307.897 157.306C308.392 157.306 308.838 157.25 309.233 157.139C309.629 157.027 309.994 156.885 310.328 156.713V158.192C310.005 158.37 309.648 158.503 309.258 158.593C308.869 158.682 308.398 158.726 307.846 158.726Z" fill="#394046"/>
<path d="M314.179 145.559V149.135C314.179 149.419 314.171 149.697 314.154 149.97C314.138 150.243 314.118 150.472 314.096 150.655H314.196C314.391 150.332 314.631 150.065 314.915 149.853C315.204 149.636 315.53 149.475 315.892 149.369C316.26 149.257 316.647 149.202 317.054 149.202C317.772 149.202 318.379 149.319 318.875 149.553C319.371 149.787 319.747 150.151 320.003 150.647C320.259 151.137 320.387 151.775 320.387 152.56V158.559H318.724V152.786C318.724 152.051 318.563 151.499 318.24 151.132C317.917 150.759 317.421 150.572 316.753 150.572C316.118 150.572 315.611 150.7 315.232 150.956C314.853 151.207 314.583 151.577 314.422 152.067C314.26 152.558 314.179 153.159 314.179 153.872V158.559H312.5V145.559H314.179Z" fill="#394046"/>
<path d="M261.961 178.447C261.332 178.447 260.767 178.559 260.265 178.781C259.77 178.999 259.349 179.319 259.004 179.742C258.659 180.16 258.394 180.664 258.21 181.254C258.026 181.845 257.934 182.51 257.934 183.251C257.934 184.237 258.079 185.089 258.369 185.808C258.664 186.526 259.107 187.081 259.697 187.47C260.288 187.86 261.031 188.055 261.928 188.055C262.463 188.055 262.972 188.008 263.457 187.913C263.947 187.813 264.435 187.685 264.919 187.529V188.999C264.451 189.178 263.967 189.308 263.465 189.392C262.97 189.481 262.388 189.526 261.719 189.526C260.472 189.526 259.433 189.267 258.603 188.749C257.778 188.231 257.163 187.504 256.756 186.568C256.35 185.627 256.146 184.518 256.146 183.243C256.146 182.318 256.275 181.474 256.531 180.711C256.787 179.943 257.163 179.28 257.659 178.723C258.154 178.16 258.762 177.729 259.48 177.428C260.204 177.121 261.037 176.968 261.978 176.968C262.591 176.968 263.187 177.035 263.766 177.169C264.351 177.297 264.888 177.478 265.379 177.712L264.744 179.141C264.337 178.957 263.9 178.795 263.432 178.656C262.97 178.517 262.479 178.447 261.961 178.447ZM260.692 175.974C260.541 175.718 260.341 175.437 260.09 175.13C259.839 174.824 259.578 174.523 259.305 174.228C259.032 173.927 258.792 173.668 258.586 173.451V173.242H259.722C260.023 173.443 260.335 173.682 260.658 173.961C260.987 174.233 261.293 174.526 261.577 174.838C261.878 174.526 262.19 174.231 262.513 173.952C262.842 173.674 263.156 173.437 263.457 173.242H264.618V173.451C264.407 173.668 264.162 173.924 263.883 174.22C263.605 174.515 263.337 174.818 263.081 175.13C262.83 175.437 262.633 175.718 262.488 175.974H260.692Z" fill="#394046"/>
<path d="M270.96 179.984C271.762 179.984 272.45 180.157 273.023 180.502C273.597 180.842 274.037 181.324 274.343 181.948C274.65 182.572 274.803 183.307 274.803 184.154V185.106H268.553C268.57 186.092 268.824 186.849 269.314 187.378C269.804 187.902 270.492 188.164 271.377 188.164C271.962 188.164 272.483 188.108 272.94 187.997C273.397 187.885 273.87 187.721 274.36 187.504V188.916C273.898 189.127 273.433 189.281 272.965 189.375C272.503 189.476 271.948 189.526 271.302 189.526C270.411 189.526 269.628 189.347 268.955 188.991C268.286 188.635 267.765 188.108 267.392 187.412C267.019 186.71 266.832 185.847 266.832 184.822C266.832 183.808 267.002 182.942 267.342 182.224C267.682 181.499 268.161 180.945 268.779 180.561C269.397 180.177 270.124 179.984 270.96 179.984ZM270.951 181.288C270.272 181.288 269.726 181.511 269.314 181.956C268.902 182.396 268.659 183.028 268.587 183.853H273.115C273.11 183.346 273.029 182.9 272.873 182.516C272.717 182.132 272.48 181.831 272.163 181.614C271.851 181.396 271.447 181.288 270.951 181.288Z" fill="#394046"/>
<path d="M283.166 186.785C283.166 187.381 283.019 187.885 282.723 188.298C282.434 188.704 282.01 189.01 281.453 189.217C280.896 189.423 280.228 189.526 279.448 189.526C278.802 189.526 278.245 189.476 277.777 189.375C277.309 189.281 276.886 189.141 276.507 188.958V187.47C276.914 187.665 277.385 187.838 277.919 187.988C278.454 188.139 278.978 188.214 279.49 188.214C280.209 188.214 280.727 188.1 281.044 187.871C281.367 187.643 281.529 187.334 281.529 186.944C281.529 186.716 281.465 186.515 281.336 186.342C281.208 186.164 280.983 185.989 280.66 185.816C280.342 185.638 279.885 185.435 279.289 185.206C278.705 184.978 278.203 184.749 277.786 184.521C277.373 184.293 277.059 184.017 276.842 183.694C276.624 183.371 276.516 182.953 276.516 182.441C276.516 181.644 276.833 181.037 277.468 180.619C278.109 180.196 278.953 179.984 280 179.984C280.557 179.984 281.08 180.04 281.57 180.152C282.066 180.263 282.54 180.419 282.991 180.619L282.448 181.914C282.047 181.742 281.634 181.6 281.211 181.488C280.788 181.371 280.356 181.313 279.916 181.313C279.342 181.313 278.902 181.405 278.596 181.589C278.295 181.772 278.145 182.026 278.145 182.349C278.145 182.6 278.214 182.808 278.354 182.975C278.499 183.143 278.738 183.307 279.072 183.468C279.406 183.624 279.858 183.811 280.426 184.028C280.988 184.24 281.473 184.46 281.88 184.688C282.292 184.917 282.609 185.195 282.832 185.524C283.055 185.852 283.166 186.273 283.166 186.785ZM278.888 178.99C278.738 178.734 278.538 178.453 278.287 178.146C278.036 177.84 277.774 177.539 277.502 177.244C277.229 176.943 276.989 176.684 276.783 176.467V176.258H277.919C278.22 176.459 278.532 176.698 278.855 176.977C279.184 177.25 279.49 177.542 279.774 177.854C280.075 177.542 280.387 177.247 280.71 176.968C281.038 176.69 281.353 176.453 281.654 176.258H282.815V176.467C282.604 176.684 282.359 176.94 282.08 177.236C281.802 177.531 281.534 177.834 281.278 178.146C281.027 178.453 280.83 178.734 280.685 178.99H278.888Z" fill="#394046"/>
<path d="M288.555 188.164C288.795 188.164 289.037 188.144 289.282 188.105C289.527 188.061 289.739 188.005 289.917 187.938V189.225C289.728 189.308 289.474 189.378 289.157 189.434C288.845 189.495 288.524 189.526 288.196 189.526C287.694 189.526 287.241 189.439 286.834 189.267C286.427 189.094 286.101 188.799 285.856 188.381C285.617 187.963 285.497 187.384 285.497 186.643V181.447H284.219V180.67L285.556 180.051L286.149 178.063H287.185V180.152H289.85V181.447H287.185V186.618C287.185 187.136 287.307 187.523 287.552 187.78C287.803 188.036 288.137 188.164 288.555 188.164Z" fill="#394046"/>
<path d="M293.459 180.152V189.359H291.78V180.152H293.459ZM292.632 176.668C292.9 176.668 293.128 176.746 293.317 176.901C293.512 177.057 293.61 177.311 293.61 177.662C293.61 178.013 293.512 178.269 293.317 178.43C293.128 178.586 292.9 178.664 292.632 178.664C292.359 178.664 292.128 178.586 291.939 178.43C291.755 178.269 291.663 178.013 291.663 177.662C291.663 177.311 291.755 177.057 291.939 176.901C292.128 176.746 292.359 176.668 292.632 176.668Z" fill="#394046"/>
<path d="M300.904 179.984C301.967 179.984 302.783 180.252 303.352 180.786C303.925 181.321 304.212 182.179 304.212 183.36V189.359H302.549V183.585C302.549 182.85 302.388 182.299 302.065 181.931C301.742 181.558 301.246 181.371 300.578 181.371C299.625 181.371 298.957 181.653 298.573 182.215C298.194 182.778 298.004 183.594 298.004 184.663V189.359H296.325V180.152H297.653L297.896 181.447H297.988C298.183 181.123 298.43 180.853 298.731 180.636C299.032 180.419 299.366 180.257 299.734 180.152C300.107 180.04 300.497 179.984 300.904 179.984Z" fill="#394046"/>
<path d="M310.545 179.993C311.681 179.993 312.531 180.246 313.093 180.753C313.656 181.254 313.937 182.048 313.937 183.134V189.359H312.734L312.408 188.022H312.341C312.085 188.356 311.818 188.635 311.539 188.857C311.261 189.08 310.938 189.247 310.57 189.359C310.208 189.47 309.765 189.526 309.242 189.526C308.685 189.526 308.189 189.425 307.755 189.225C307.32 189.024 306.978 188.724 306.727 188.323C306.482 187.916 306.359 187.401 306.359 186.777C306.359 185.841 306.719 185.131 307.437 184.646C308.156 184.162 309.244 183.897 310.704 183.853L312.291 183.786V183.268C312.291 182.549 312.13 182.043 311.807 181.747C311.489 181.452 311.044 181.305 310.47 181.305C309.996 181.305 309.542 181.374 309.108 181.513C308.674 181.647 308.256 181.809 307.855 181.998L307.32 180.778C307.755 180.555 308.247 180.369 308.799 180.218C309.356 180.068 309.938 179.993 310.545 179.993ZM312.275 184.889L310.988 184.947C309.924 184.986 309.175 185.164 308.74 185.482C308.312 185.794 308.097 186.231 308.097 186.794C308.097 187.284 308.245 187.643 308.54 187.871C308.835 188.1 309.225 188.214 309.71 188.214C310.456 188.214 311.069 188.005 311.548 187.587C312.032 187.164 312.275 186.54 312.275 185.716V184.889Z" fill="#394046"/>
<path d="M258.452 220.158H256.748V207.943H263.599V209.414H258.452V213.558H263.282V215.02H258.452V220.158Z" fill="#394046"/>
<path d="M269.94 210.784C270.107 210.784 270.288 210.795 270.483 210.817C270.678 210.834 270.845 210.856 270.985 210.884L270.809 212.446C270.676 212.413 270.52 212.385 270.341 212.363C270.169 212.341 270.007 212.329 269.857 212.329C269.5 212.329 269.161 212.396 268.838 212.53C268.514 212.664 268.23 212.859 267.985 213.115C267.74 213.365 267.548 213.675 267.409 214.042C267.27 214.404 267.2 214.819 267.2 215.287V220.158H265.512V210.951H266.866L267.066 212.614H267.141C267.331 212.279 267.559 211.973 267.827 211.695C268.1 211.416 268.411 211.196 268.762 211.034C269.119 210.867 269.511 210.784 269.94 210.784Z" fill="#394046"/>
<path d="M276.223 210.792C277.36 210.792 278.209 211.046 278.771 211.552C279.334 212.054 279.615 212.847 279.615 213.934V220.158H278.412L278.086 218.821H278.02C277.763 219.155 277.496 219.434 277.217 219.657C276.939 219.88 276.616 220.047 276.248 220.158C275.886 220.269 275.443 220.325 274.92 220.325C274.363 220.325 273.867 220.225 273.433 220.024C272.998 219.824 272.656 219.523 272.405 219.122C272.16 218.715 272.037 218.2 272.037 217.576C272.037 216.641 272.397 215.93 273.115 215.446C273.834 214.961 274.923 214.697 276.382 214.652L277.969 214.585V214.067C277.969 213.349 277.808 212.842 277.485 212.547C277.167 212.252 276.722 212.104 276.148 212.104C275.675 212.104 275.221 212.174 274.786 212.313C274.352 212.446 273.934 212.608 273.533 212.797L272.998 211.578C273.433 211.355 273.926 211.168 274.477 211.018C275.034 210.867 275.616 210.792 276.223 210.792ZM277.953 215.688L276.666 215.747C275.602 215.786 274.853 215.964 274.419 216.281C273.99 216.593 273.775 217.03 273.775 217.593C273.775 218.083 273.923 218.442 274.218 218.671C274.513 218.899 274.903 219.013 275.388 219.013C276.134 219.013 276.747 218.805 277.226 218.387C277.71 217.963 277.953 217.34 277.953 216.515V215.688Z" fill="#394046"/>
<path d="M287.001 210.784C288.065 210.784 288.881 211.051 289.449 211.586C290.023 212.121 290.31 212.978 290.31 214.159V220.158H288.647V214.385C288.647 213.65 288.485 213.098 288.162 212.731C287.839 212.357 287.344 212.171 286.675 212.171C285.723 212.171 285.054 212.452 284.67 213.015C284.291 213.577 284.102 214.393 284.102 215.463V220.158H282.423V210.951H283.751L283.993 212.246H284.085C284.28 211.923 284.528 211.653 284.829 211.436C285.13 211.218 285.464 211.057 285.831 210.951C286.205 210.84 286.594 210.784 287.001 210.784Z" fill="#394046"/>
<path d="M296.818 220.325C295.971 220.325 295.231 220.155 294.596 219.815C293.961 219.476 293.468 218.958 293.117 218.261C292.771 217.56 292.599 216.674 292.599 215.605C292.599 214.491 292.785 213.58 293.159 212.873C293.532 212.16 294.047 211.633 294.704 211.293C295.367 210.954 296.125 210.784 296.977 210.784C297.478 210.784 297.946 210.834 298.38 210.934C298.82 211.034 299.188 211.16 299.483 211.31L298.982 212.672C298.67 212.55 298.333 212.441 297.971 212.346C297.615 212.252 297.275 212.204 296.952 212.204C296.361 212.204 295.871 212.335 295.481 212.597C295.097 212.853 294.807 213.232 294.612 213.733C294.417 214.234 294.32 214.853 294.32 215.588C294.32 216.301 294.415 216.905 294.604 217.401C294.799 217.891 295.083 218.264 295.456 218.52C295.835 218.777 296.306 218.905 296.868 218.905C297.364 218.905 297.809 218.849 298.205 218.738C298.6 218.626 298.965 218.484 299.299 218.312V219.79C298.976 219.969 298.62 220.102 298.23 220.191C297.84 220.281 297.369 220.325 296.818 220.325ZM298.305 222.472C298.305 223.035 298.102 223.475 297.695 223.792C297.289 224.11 296.659 224.269 295.807 224.269C295.618 224.269 295.439 224.257 295.272 224.235C295.105 224.213 294.966 224.185 294.855 224.152V223.149C294.972 223.171 295.122 223.194 295.306 223.216C295.49 223.238 295.665 223.249 295.832 223.249C296.189 223.249 296.464 223.194 296.659 223.082C296.86 222.976 296.96 222.79 296.96 222.522C296.96 222.238 296.821 222.024 296.542 221.879C296.269 221.734 295.896 221.634 295.423 221.578L296.141 220.158H297.236L296.843 220.985C297.11 221.046 297.353 221.138 297.57 221.261C297.793 221.383 297.971 221.542 298.105 221.737C298.238 221.938 298.305 222.183 298.305 222.472Z" fill="#394046"/>
<path d="M304.997 210.792C306.134 210.792 306.983 211.046 307.546 211.552C308.108 212.054 308.39 212.847 308.39 213.934V220.158H307.186L306.861 218.821H306.794C306.538 219.155 306.27 219.434 305.992 219.657C305.713 219.88 305.39 220.047 305.022 220.158C304.66 220.269 304.218 220.325 303.694 220.325C303.137 220.325 302.641 220.225 302.207 220.024C301.772 219.824 301.43 219.523 301.179 219.122C300.934 218.715 300.812 218.2 300.812 217.576C300.812 216.641 301.171 215.93 301.889 215.446C302.608 214.961 303.697 214.697 305.156 214.652L306.744 214.585V214.067C306.744 213.349 306.582 212.842 306.259 212.547C305.942 212.252 305.496 212.104 304.922 212.104C304.449 212.104 303.995 212.174 303.56 212.313C303.126 212.446 302.708 212.608 302.307 212.797L301.772 211.578C302.207 211.355 302.7 211.168 303.251 211.018C303.808 210.867 304.39 210.792 304.997 210.792ZM306.727 215.688L305.44 215.747C304.376 215.786 303.627 215.964 303.193 216.281C302.764 216.593 302.549 217.03 302.549 217.593C302.549 218.083 302.697 218.442 302.992 218.671C303.287 218.899 303.677 219.013 304.162 219.013C304.908 219.013 305.521 218.805 306 218.387C306.485 217.963 306.727 217.34 306.727 216.515V215.688Z" fill="#394046"/>
<path d="M312.876 210.951V220.158H311.197V210.951H312.876ZM312.049 207.467C312.316 207.467 312.545 207.545 312.734 207.701C312.929 207.857 313.026 208.11 313.026 208.461C313.026 208.812 312.929 209.068 312.734 209.23C312.545 209.386 312.316 209.464 312.049 209.464C311.776 209.464 311.545 209.386 311.355 209.23C311.172 209.068 311.08 208.812 311.08 208.461C311.08 208.11 311.172 207.857 311.355 207.701C311.545 207.545 311.776 207.467 312.049 207.467Z" fill="#394046"/>
<path d="M321.816 217.585C321.816 218.181 321.668 218.685 321.373 219.097C321.083 219.504 320.66 219.81 320.103 220.016C319.546 220.222 318.878 220.325 318.098 220.325C317.452 220.325 316.895 220.275 316.427 220.175C315.959 220.08 315.536 219.941 315.157 219.757V218.27C315.564 218.465 316.034 218.637 316.569 218.788C317.104 218.938 317.627 219.013 318.14 219.013C318.858 219.013 319.376 218.899 319.694 218.671C320.017 218.442 320.178 218.133 320.178 217.743C320.178 217.515 320.114 217.315 319.986 217.142C319.858 216.964 319.632 216.788 319.309 216.616C318.992 216.437 318.535 216.234 317.939 216.006C317.354 215.777 316.853 215.549 316.435 215.321C316.023 215.092 315.708 214.816 315.491 214.493C315.274 214.17 315.165 213.753 315.165 213.24C315.165 212.444 315.483 211.837 316.118 211.419C316.758 210.995 317.602 210.784 318.649 210.784C319.206 210.784 319.73 210.84 320.22 210.951C320.716 211.062 321.189 211.218 321.64 211.419L321.097 212.714C320.696 212.541 320.284 212.399 319.861 212.288C319.437 212.171 319.006 212.112 318.566 212.112C317.992 212.112 317.552 212.204 317.246 212.388C316.945 212.572 316.795 212.825 316.795 213.148C316.795 213.399 316.864 213.608 317.003 213.775C317.148 213.942 317.388 214.106 317.722 214.268C318.056 214.424 318.507 214.61 319.075 214.828C319.638 215.039 320.123 215.259 320.529 215.488C320.941 215.716 321.259 215.994 321.482 216.323C321.704 216.652 321.816 217.072 321.816 217.585Z" fill="#394046"/>
<path d="M263.607 250.957H256.748V238.743H263.607V240.213H258.461V243.847H263.298V245.301H258.461V249.479H263.607V250.957Z" fill="#394046"/>
<path d="M272.138 248.384C272.138 248.98 271.99 249.484 271.695 249.896C271.405 250.303 270.982 250.609 270.425 250.815C269.868 251.021 269.2 251.124 268.42 251.124C267.774 251.124 267.217 251.074 266.749 250.974C266.281 250.879 265.858 250.74 265.479 250.556V249.069C265.885 249.264 266.356 249.437 266.891 249.587C267.426 249.738 267.949 249.813 268.462 249.813C269.18 249.813 269.698 249.699 270.016 249.47C270.339 249.242 270.5 248.933 270.5 248.543C270.5 248.314 270.436 248.114 270.308 247.941C270.18 247.763 269.954 247.588 269.631 247.415C269.314 247.237 268.857 247.033 268.261 246.805C267.676 246.577 267.175 246.348 266.757 246.12C266.345 245.892 266.03 245.616 265.813 245.293C265.596 244.97 265.487 244.552 265.487 244.04C265.487 243.243 265.805 242.636 266.44 242.218C267.08 241.795 267.924 241.583 268.971 241.583C269.528 241.583 270.052 241.639 270.542 241.75C271.038 241.862 271.511 242.018 271.962 242.218L271.419 243.513C271.018 243.341 270.606 243.199 270.183 243.087C269.759 242.97 269.328 242.912 268.888 242.912C268.314 242.912 267.874 243.004 267.568 243.187C267.267 243.371 267.116 243.625 267.116 243.948C267.116 244.198 267.186 244.407 267.325 244.574C267.47 244.741 267.71 244.906 268.044 245.067C268.378 245.223 268.829 245.41 269.397 245.627C269.96 245.839 270.444 246.059 270.851 246.287C271.263 246.515 271.581 246.794 271.804 247.123C272.026 247.451 272.138 247.872 272.138 248.384Z" fill="#394046"/>
<path d="M278.847 241.583C279.966 241.583 280.86 241.981 281.529 242.778C282.203 243.569 282.54 244.753 282.54 246.329C282.54 247.376 282.384 248.256 282.072 248.969C281.765 249.676 281.331 250.214 280.768 250.581C280.211 250.943 279.557 251.124 278.805 251.124C278.331 251.124 277.917 251.063 277.56 250.941C277.204 250.813 276.897 250.645 276.641 250.439C276.39 250.228 276.179 250.002 276.006 249.763H275.897C275.92 249.98 275.942 250.233 275.964 250.523C275.992 250.807 276.006 251.063 276.006 251.292V255.051H274.318V241.75H275.697L275.922 243.07H276.006C276.179 242.797 276.39 242.55 276.641 242.327C276.897 242.098 277.206 241.917 277.568 241.784C277.93 241.65 278.357 241.583 278.847 241.583ZM278.462 242.97C277.872 242.97 277.399 243.087 277.042 243.321C276.691 243.549 276.432 243.892 276.265 244.349C276.103 244.805 276.017 245.379 276.006 246.07V246.337C276.006 247.072 276.084 247.693 276.24 248.2C276.396 248.702 276.655 249.086 277.017 249.353C277.379 249.615 277.866 249.746 278.479 249.746C279.003 249.746 279.437 249.604 279.782 249.32C280.133 249.036 280.392 248.635 280.559 248.117C280.732 247.599 280.818 246.997 280.818 246.312C280.818 245.271 280.626 244.455 280.242 243.864C279.858 243.268 279.264 242.97 278.462 242.97Z" fill="#394046"/>
<path d="M288.405 241.592C289.541 241.592 290.39 241.845 290.953 242.352C291.515 242.853 291.797 243.647 291.797 244.733V250.957H290.594L290.268 249.621H290.201C289.945 249.955 289.677 250.233 289.399 250.456C289.12 250.679 288.797 250.846 288.43 250.957C288.068 251.069 287.625 251.124 287.101 251.124C286.544 251.124 286.049 251.024 285.614 250.824C285.18 250.623 284.837 250.322 284.586 249.921C284.341 249.515 284.219 249 284.219 248.376C284.219 247.44 284.578 246.73 285.297 246.245C286.015 245.761 287.104 245.496 288.563 245.452L290.151 245.385V244.867C290.151 244.148 289.989 243.641 289.666 243.346C289.349 243.051 288.903 242.903 288.329 242.903C287.856 242.903 287.402 242.973 286.968 243.112C286.533 243.246 286.115 243.407 285.714 243.597L285.18 242.377C285.614 242.154 286.107 241.968 286.658 241.817C287.215 241.667 287.798 241.592 288.405 241.592ZM290.134 246.488L288.847 246.546C287.784 246.585 287.034 246.763 286.6 247.081C286.171 247.393 285.957 247.83 285.957 248.392C285.957 248.883 286.104 249.242 286.399 249.47C286.695 249.699 287.085 249.813 287.569 249.813C288.316 249.813 288.928 249.604 289.407 249.186C289.892 248.763 290.134 248.139 290.134 247.315V246.488Z" fill="#394046"/>
<path d="M299.182 241.583C300.246 241.583 301.062 241.851 301.63 242.385C302.204 242.92 302.491 243.778 302.491 244.959V250.957H300.828V245.184C300.828 244.449 300.667 243.898 300.344 243.53C300.021 243.157 299.525 242.97 298.857 242.97C297.904 242.97 297.236 243.251 296.851 243.814C296.473 244.377 296.283 245.193 296.283 246.262V250.957H294.604V241.75H295.932L296.175 243.045H296.267C296.462 242.722 296.709 242.452 297.01 242.235C297.311 242.018 297.645 241.856 298.013 241.75C298.386 241.639 298.776 241.583 299.182 241.583ZM295.306 240.572C295.339 240.21 295.406 239.89 295.506 239.611C295.612 239.333 295.749 239.099 295.916 238.91C296.088 238.72 296.286 238.578 296.509 238.484C296.737 238.383 296.985 238.333 297.252 238.333C297.503 238.333 297.743 238.383 297.971 238.484C298.205 238.578 298.428 238.69 298.639 238.818C298.851 238.946 299.057 239.06 299.258 239.16C299.458 239.255 299.653 239.302 299.842 239.302C300.082 239.302 300.277 239.224 300.427 239.068C300.578 238.907 300.692 238.656 300.77 238.316H301.697C301.625 239.024 301.416 239.575 301.071 239.971C300.731 240.366 300.291 240.564 299.751 240.564C299.505 240.564 299.269 240.514 299.04 240.414C298.818 240.313 298.6 240.202 298.389 240.079C298.177 239.951 297.968 239.837 297.762 239.737C297.562 239.637 297.361 239.586 297.161 239.586C296.915 239.586 296.718 239.667 296.567 239.829C296.423 239.985 296.311 240.233 296.233 240.572H295.306Z" fill="#394046"/>
<path d="M313.344 246.337C313.344 247.095 313.244 247.771 313.043 248.367C312.848 248.958 312.561 249.459 312.183 249.871C311.809 250.278 311.358 250.59 310.829 250.807C310.3 251.019 309.701 251.124 309.033 251.124C308.409 251.124 307.835 251.019 307.312 250.807C306.794 250.59 306.345 250.278 305.967 249.871C305.588 249.459 305.295 248.958 305.089 248.367C304.883 247.771 304.78 247.095 304.78 246.337C304.78 245.329 304.953 244.471 305.298 243.764C305.644 243.051 306.136 242.511 306.777 242.143C307.423 241.77 308.192 241.583 309.083 241.583C309.93 241.583 310.673 241.77 311.314 242.143C311.954 242.516 312.453 243.056 312.809 243.764C313.166 244.471 313.344 245.329 313.344 246.337ZM306.501 246.337C306.501 247.045 306.59 247.654 306.769 248.167C306.952 248.674 307.231 249.064 307.604 249.337C307.983 249.609 308.47 249.746 309.066 249.746C309.651 249.746 310.133 249.609 310.512 249.337C310.89 249.064 311.169 248.674 311.347 248.167C311.525 247.654 311.614 247.045 311.614 246.337C311.614 245.635 311.525 245.034 311.347 244.533C311.169 244.031 310.89 243.647 310.512 243.38C310.138 243.112 309.651 242.978 309.05 242.978C308.169 242.978 307.523 243.274 307.111 243.864C306.705 244.449 306.501 245.273 306.501 246.337Z" fill="#394046"/>
<path d="M317.363 250.957H315.675V237.957H317.363V250.957Z" fill="#394046"/>
<path d="M259.493 125.969V121.195H267.98V125.969H259.493ZM267.98 115.326V119.946H259.493V115.326H267.98ZM258.21 114.077V128.33H259.493V127.218H267.98V128.261H269.315V114.077H258.21Z" fill="#394046"/>
<path d="M288.222 117.755V116.489H281.447V112.913H280.129V116.489H273.405V117.755H279.342C277.905 120.681 275.424 123.453 272.823 124.805C273.114 125.045 273.541 125.524 273.73 125.832C276.245 124.377 278.555 121.794 280.129 118.833V124.069H276.792V125.335H280.129V128.518H281.447V125.335H284.698V124.069H281.447V118.833C282.987 121.794 285.279 124.394 287.863 125.815C288.051 125.455 288.496 124.959 288.804 124.702C286.118 123.402 283.654 120.681 282.234 117.755H288.222Z" fill="#394046"/>
<path d="M295.649 113.495H290.977V114.521H295.649V113.495ZM294.622 123.83V126.687H291.953V123.83H294.622ZM295.734 122.786H290.84V128.501H291.953V127.731H295.734V122.786ZM290.875 121.468H295.666V120.459H290.875V121.468ZM295.666 118.132H290.875V119.141H295.666V118.132ZM290.07 116.814H296.247V115.771H290.07V116.814ZM303.502 123.556V126.585H298.746V123.556H303.502ZM297.548 128.518H298.746V127.731H303.502V128.45H304.734V122.427H297.548V128.518ZM303.057 117.499V119.98H299.772C299.926 119.261 300.08 118.406 300.234 117.499H303.057ZM304.272 119.98V116.404H300.422C300.525 115.805 300.628 115.206 300.713 114.641H305.231V113.529H296.829V114.641H299.464C299.379 115.206 299.293 115.805 299.19 116.404H297.086V117.499H299.019C298.865 118.388 298.694 119.261 298.54 119.98H296.316V121.109H305.778V119.98H304.272Z" fill="#394046"/>
<path d="M265.467 277.962V273.428H270.378V277.962H265.467ZM259.256 277.962V273.428H264.15V277.962H259.256ZM265.467 272.179V269.133H264.15V272.179H258.007V280.272H259.256V279.211H264.15V284.755H265.467V279.211H270.378V280.187H271.678V272.179H265.467Z" fill="#394046"/>
<path d="M285.572 273.274C284.7 275.687 283.502 277.654 281.928 279.246C280.302 277.586 279.087 275.567 278.249 273.274H285.572ZM289.679 273.274V272.025H282.578V269.133H281.295V272.025H274.331V273.274H276.846C277.821 275.995 279.156 278.304 280.918 280.17C279.087 281.675 276.846 282.77 274.125 283.558C274.399 283.848 274.81 284.464 274.929 284.772C277.684 283.883 279.994 282.702 281.876 281.094C283.759 282.788 286.086 284.019 288.943 284.755C289.131 284.396 289.542 283.814 289.85 283.523C287.078 282.873 284.768 281.71 282.903 280.135C284.683 278.339 286.034 276.08 287.044 273.274H289.679Z" fill="#394046"/>
</g>
<rect x="350.086" y="66.9999" width="19.9138" height="232.707" fill="#F3F5F7"/>
<rect x="351.794" y="187.051" width="16.4798" height="33.8751" rx="8.23989" fill="#C1C7D0"/>
</g>
</g>
</g>
<defs>
<filter id="filter0_d_1069_3377" x="209.06" y="45.3" width="189.88" height="289.88" filterUnits="userSpaceOnUse" color-interpolation-filters="sRGB">
<feFlood flood-opacity="0" result="BackgroundImageFix"/>
<feColorMatrix in="SourceAlpha" type="matrix" values="0 0 0 0 0 0 0 0 0 0 0 0 0 0 0 0 0 0 127 0" result="hardAlpha"/>
<feOffset dy="7.24"/>
<feGaussianBlur stdDeviation="14.47"/>
<feComposite in2="hardAlpha" operator="out"/>
<feColorMatrix type="matrix" values="0 0 0 0 0.0862745 0 0 0 0 0.109804 0 0 0 0 0.137255 0 0 0 0.1 0"/>
<feBlend mode="normal" in2="BackgroundImageFix" result="effect1_dropShadow_1069_3377"/>
<feBlend mode="normal" in="SourceGraphic" in2="effect1_dropShadow_1069_3377" result="shape"/>
</filter>
<filter id="filter1_d_1069_3377" x="211.599" y="47.1995" width="184.801" height="285.246" filterUnits="userSpaceOnUse" color-interpolation-filters="sRGB">
<feFlood flood-opacity="0" result="BackgroundImageFix"/>
<feColorMatrix in="SourceAlpha" type="matrix" values="0 0 0 0 0 0 0 0 0 0 0 0 0 0 0 0 0 0 127 0" result="hardAlpha"/>
<feOffset dy="6.60017"/>
<feGaussianBlur stdDeviation="13.2003"/>
<feComposite in2="hardAlpha" operator="out"/>
<feColorMatrix type="matrix" values="0 0 0 0 0 0 0 0 0 0 0 0 0 0 0 0 0 0 0.12 0"/>
<feBlend mode="normal" in2="BackgroundImageFix" result="effect1_dropShadow_1069_3377"/>
<feBlend mode="normal" in="SourceGraphic" in2="effect1_dropShadow_1069_3377" result="shape"/>
</filter>
<clipPath id="clip0_1069_3377">
<rect width="448" height="448" fill="white"/>
</clipPath>
<clipPath id="clip1_1069_3377">
<rect x="238" y="67" width="132" height="232" rx="4" fill="white"/>
</clipPath>
</defs>
</svg>
